<svg width="2000px" height="1070px"
 viewBox="0.00 0.00 1003.52 537.21" xmlns="http://www.w3.org/2000/svg" xmlns:xlink="http://www.w3.org/1999/xlink">
<g id="graph0" class="graph" transform="scale(1.0 1.0) rotate(0) translate(4 533.21)">
<title>ContextMapGraph</title>
<polygon fill="white" stroke="transparent" points="-4,4 -4,-533.21 999.52,-533.21 999.52,4 -4,4"/>
<!-- CatalogoProductosContext -->
<g id="node1" class="node">
<title>CatalogoProductosContext</title>
<polygon fill="none" stroke="black" stroke-width="2" points="354.69,-498.28 350.06,-500.94 345,-503.52 339.52,-506.03 333.64,-508.45 327.39,-510.78 320.79,-513 313.85,-515.11 306.61,-517.1 299.08,-518.95 291.28,-520.67 283.25,-522.24 275,-523.66 266.56,-524.93 257.95,-526.04 249.19,-527 240.32,-527.78 231.34,-528.41 222.29,-528.87 213.19,-529.16 204.05,-529.29 194.91,-529.26 185.78,-529.07 176.69,-528.73 167.65,-528.23 158.69,-527.58 149.82,-526.8 141.07,-525.88 132.45,-524.82 123.99,-523.65 115.69,-522.36 107.59,-520.96 99.68,-519.46 92,-517.87 84.56,-516.19 77.38,-514.43 70.46,-512.6 63.83,-510.72 57.49,-508.77 51.47,-506.78 45.78,-504.76 40.43,-502.7 35.44,-500.61 30.81,-498.5 26.56,-496.39 22.71,-494.26 19.25,-492.14 16.21,-490.02 13.59,-487.9 11.4,-485.8 9.65,-483.72 8.35,-481.65 7.51,-479.61 7.12,-477.6 7.21,-475.61 7.76,-473.65 8.79,-471.73 10.29,-469.83 12.27,-467.98 14.73,-466.16 17.67,-464.38 21.07,-462.63 24.94,-460.93 29.28,-459.27 34.07,-457.65 39.3,-456.07 44.98,-454.54 51.07,-453.05 57.58,-451.61 64.48,-450.22 71.77,-448.89 79.41,-447.6 87.4,-446.37 95.71,-445.2 104.32,-444.08 113.21,-443.03 122.35,-442.05 131.71,-441.14 141.27,-440.31 151,-439.55 160.87,-438.87 170.85,-438.28 180.91,-437.78 191.02,-437.38 201.14,-437.07 211.25,-436.87 221.31,-436.77 231.28,-436.79 241.15,-436.91 250.87,-437.16 260.41,-437.53 269.74,-438.02 278.84,-438.64 287.66,-439.38 296.19,-440.26 304.39,-441.27 312.24,-442.4 319.71,-443.67 326.78,-445.07 333.42,-446.59 339.62,-448.24 345.36,-450.02 350.62,-451.91 355.38,-453.92 359.62,-456.03 363.35,-458.26 366.54,-460.57 369.2,-462.98 371.31,-465.47 372.87,-468.04 373.88,-470.67 374.34,-473.35 374.26,-476.08 373.63,-478.85 372.46,-481.64 370.76,-484.45 368.54,-487.25 365.81,-490.05 362.58,-492.83 358.87,-495.58 354.69,-498.28"/>
<text text-anchor="middle" x="187.11" y="-476.84" font-family="sans-serif" font-size="16.00">CatalogoProductosContext</text>
</g>
<!-- GestionOrdenesContext -->
<g id="node2" class="node">
<title>GestionOrdenesContext</title>
<polygon fill="none" stroke="black" stroke-width="2" points="35.33,-352.96 30.48,-350.39 26.08,-347.79 22.15,-345.16 18.71,-342.51 15.77,-339.86 13.35,-337.22 11.45,-334.59 10.1,-331.98 9.3,-329.41 9.04,-326.88 9.35,-324.4 10.22,-321.98 11.65,-319.63 13.63,-317.34 16.16,-315.14 19.24,-313.02 22.85,-310.99 26.98,-309.05 31.62,-307.22 36.74,-305.48 42.34,-303.85 48.38,-302.32 54.86,-300.91 61.73,-299.6 68.99,-298.4 76.59,-297.31 84.52,-296.33 92.74,-295.46 101.23,-294.69 109.94,-294.04 118.86,-293.49 127.94,-293.04 137.16,-292.69 146.48,-292.44 155.87,-292.29 165.3,-292.23 174.73,-292.27 184.14,-292.39 193.5,-292.61 202.77,-292.9 211.93,-293.28 220.95,-293.74 229.8,-294.28 238.46,-294.89 246.9,-295.58 255.1,-296.35 263.05,-297.18 270.72,-298.09 278.09,-299.07 285.14,-300.11 291.88,-301.23 298.27,-302.41 304.3,-303.65 309.98,-304.97 315.29,-306.35 320.21,-307.79 324.76,-309.3 328.91,-310.87 332.67,-312.5 336.04,-314.19 339.01,-315.95 341.58,-317.76 343.76,-319.63 345.54,-321.55 346.93,-323.53 347.92,-325.55 348.53,-327.63 348.76,-329.74 348.61,-331.9 348.08,-334.09 347.18,-336.31 345.91,-338.56 344.28,-340.83 342.3,-343.11 339.97,-345.4 337.29,-347.69 334.27,-349.98 330.92,-352.26 327.25,-354.51 323.25,-356.73 318.94,-358.92 314.31,-361.07 309.39,-363.16 304.18,-365.19 298.67,-367.15 292.89,-369.03 286.84,-370.82 280.53,-372.52 273.96,-374.12 267.15,-375.6 260.12,-376.97 252.86,-378.21 245.39,-379.32 237.73,-380.29 229.89,-381.11 221.89,-381.79 213.74,-382.31 205.45,-382.67 197.06,-382.88 188.57,-382.92 180,-382.8 171.38,-382.51 162.73,-382.06 154.07,-381.45 145.43,-380.67 136.83,-379.73 128.29,-378.64 119.84,-377.4 111.51,-376 103.33,-374.47 95.31,-372.8 87.5,-371 79.91,-369.08 72.57,-367.04 65.51,-364.9 58.76,-362.67 52.34,-360.35 46.28,-357.95 40.6,-355.48 35.33,-352.96"/>
<text text-anchor="middle" x="187.11" y="-330.4" font-family="sans-serif" font-size="16.00">GestionOrdenesContext</text>
</g>
<!-- CatalogoProductosContext&#45;&gt;GestionOrdenesContext -->
<g id="edge1" class="edge">
<title>CatalogoProductosContext&#45;&gt;GestionOrdenesContext</title>
<path fill="none" stroke="black" stroke-width="2" d="M187.11,-437.47C187.11,-420.4 187.11,-400.61 187.11,-383"/>
<text text-anchor="middle" x="262.61" y="-404.46" font-family="sans-serif" font-size="12.00"> &#160;&#160;&#160;&#160;&#160;&#160;&#160;&#160;&#160;&#160;&#160;&#160;&#160;&#160;&#160;&#160;&#160;&#160;&#160;&#160;&#160;&#160;&#160;&#160;&#160;&#160;&#160;&#160;&#160;&#160;&#160;&#160;&#160;&#160;&#160;&#160;&#160;&#160;&#160;</text>
<polygon fill="white" stroke="transparent" points="180.11,-374 180.11,-391 194.11,-391 194.11,-374 180.11,-374"/>
<text text-anchor="start" x="182.11" y="-379.4" font-family="sans-serif" font-size="12.00">D</text>
<polygon fill="white" stroke="transparent" points="163.11,-427.47 163.11,-446.47 179.11,-446.47 179.11,-427.47 163.11,-427.47"/>
<polyline fill="none" stroke="black" points="179.11,-427.47 179.11,-446.47 "/>
<text text-anchor="start" x="166.11" y="-433.87" font-family="sans-serif" font-size="12.00">U</text>
<polygon fill="white" stroke="transparent" points="179.11,-427.47 179.11,-446.47 212.11,-446.47 212.11,-427.47 179.11,-427.47"/>
<polygon fill="none" stroke="black" points="179.11,-427.47 179.11,-446.47 212.11,-446.47 212.11,-427.47 179.11,-427.47"/>
<text text-anchor="start" x="182.11" y="-433.87" font-family="sans-serif" font-size="12.00">OHS</text>
</g>
<!-- GestionPagosContext -->
<g id="node3" class="node">
<title>GestionPagosContext</title>
<polygon fill="none" stroke="black" stroke-width="2" points="284.25,-222.27 276.61,-224.13 268.74,-225.88 260.69,-227.52 252.48,-229.04 244.13,-230.43 235.7,-231.69 227.19,-232.81 218.65,-233.79 210.1,-234.62 201.57,-235.3 193.09,-235.83 184.69,-236.19 176.38,-236.4 168.2,-236.45 160.17,-236.35 152.3,-236.08 144.62,-235.65 137.14,-235.07 129.88,-234.34 122.86,-233.46 116.09,-232.43 109.58,-231.27 103.34,-229.96 97.38,-228.53 91.71,-226.98 86.34,-225.31 81.27,-223.53 76.5,-221.65 72.04,-219.68 67.89,-217.62 64.05,-215.49 60.53,-213.28 57.32,-211.02 54.42,-208.71 51.83,-206.36 49.56,-203.98 47.6,-201.57 45.94,-199.14 44.59,-196.71 43.55,-194.28 42.82,-191.86 42.39,-189.45 42.26,-187.07 42.44,-184.72 42.92,-182.4 43.7,-180.13 44.78,-177.9 46.17,-175.73 47.85,-173.62 49.84,-171.57 52.14,-169.59 54.73,-167.68 57.63,-165.84 60.84,-164.07 64.34,-162.39 68.15,-160.78 72.26,-159.26 76.67,-157.82 81.38,-156.47 86.39,-155.2 91.68,-154.02 97.26,-152.92 103.12,-151.91 109.26,-150.99 115.66,-150.16 122.31,-149.41 129.21,-148.75 136.34,-148.18 143.68,-147.7 151.24,-147.3 158.97,-146.99 166.88,-146.76 174.93,-146.62 183.11,-146.57 191.4,-146.61 199.77,-146.73 208.19,-146.95 216.65,-147.24 225.11,-147.63 233.54,-148.11 241.92,-148.67 250.21,-149.33 258.39,-150.07 266.43,-150.9 274.29,-151.83 281.95,-152.84 289.37,-153.94 296.53,-155.14 303.39,-156.42 309.93,-157.79 316.11,-159.25 321.92,-160.79 327.33,-162.42 332.31,-164.13 336.84,-165.93 340.89,-167.8 344.47,-169.75 347.53,-171.77 350.08,-173.85 352.1,-176 353.57,-178.21 354.5,-180.47 354.88,-182.78 354.7,-185.14 353.97,-187.52 352.69,-189.94 350.87,-192.38 348.51,-194.83 345.62,-197.29 342.22,-199.74 338.32,-202.19 333.94,-204.61 329.09,-207.01 323.81,-209.37 318.11,-211.69 312.02,-213.95 305.56,-216.15 298.76,-218.27 291.65,-220.32 284.25,-222.27"/>
<text text-anchor="middle" x="187.11" y="-184.42" font-family="sans-serif" font-size="16.00">GestionPagosContext</text>
</g>
<!-- GestionOrdenesContext&#45;&gt;GestionPagosContext -->
<g id="edge2" class="edge">
<title>GestionOrdenesContext&#45;&gt;GestionPagosContext</title>
<path fill="none" stroke="black" stroke-width="2" d="M187.11,-292.33C187.11,-274.87 187.11,-254.38 187.11,-236.3"/>
<text text-anchor="middle" x="221.61" y="-257.74" font-family="sans-serif" font-size="12.00">Partnership</text>
</g>
<!-- GestionClientesContext -->
<g id="node4" class="node">
<title>GestionClientesContext</title>
<polygon fill="none" stroke="black" stroke-width="2" points="453.06,-177.81 455.45,-175 458.28,-172.23 461.53,-169.52 465.19,-166.88 469.24,-164.32 473.68,-161.85 478.49,-159.48 483.65,-157.22 489.16,-155.07 494.99,-153.05 501.13,-151.16 507.56,-149.4 514.26,-147.8 521.22,-146.34 528.41,-145.03 535.81,-143.88 543.41,-142.89 551.19,-142.06 559.12,-141.38 567.18,-140.87 575.36,-140.52 583.62,-140.32 591.96,-140.29 600.35,-140.4 608.77,-140.66 617.2,-141.06 625.61,-141.61 633.98,-142.28 642.31,-143.09 650.55,-144.02 658.7,-145.06 666.73,-146.21 674.63,-147.46 682.36,-148.81 689.93,-150.24 697.29,-151.76 704.45,-153.35 711.37,-155 718.04,-156.71 724.44,-158.48 730.56,-160.29 736.38,-162.14 741.89,-164.02 747.06,-165.94 751.89,-167.87 756.37,-169.83 760.47,-171.8 764.19,-173.77 767.52,-175.76 770.44,-177.74 772.95,-179.73 775.04,-181.71 776.7,-183.68 777.92,-185.65 778.71,-187.61 779.05,-189.55 778.95,-191.48 778.39,-193.4 777.39,-195.3 775.94,-197.18 774.04,-199.05 771.7,-200.89 768.92,-202.71 765.7,-204.51 762.06,-206.29 758,-208.04 753.54,-209.77 748.67,-211.46 743.42,-213.12 737.8,-214.75 731.82,-216.34 725.5,-217.89 718.85,-219.4 711.89,-220.86 704.65,-222.27 697.14,-223.62 689.38,-224.91 681.4,-226.14 673.21,-227.29 664.85,-228.37 656.33,-229.37 647.68,-230.29 638.93,-231.11 630.1,-231.84 621.21,-232.46 612.3,-232.98 603.39,-233.38 594.5,-233.67 585.67,-233.83 576.91,-233.87 568.26,-233.78 559.75,-233.55 551.38,-233.18 543.2,-232.67 535.23,-232.02 527.48,-231.23 519.99,-230.29 512.77,-229.21 505.84,-227.98 499.23,-226.61 492.95,-225.09 487.02,-223.45 481.46,-221.66 476.29,-219.75 471.51,-217.71 467.14,-215.56 463.2,-213.29 459.69,-210.92 456.62,-208.45 453.99,-205.89 451.83,-203.26 450.12,-200.56 448.87,-197.8 448.09,-194.99 447.77,-192.15 447.91,-189.28 448.52,-186.41 449.58,-183.53 451.1,-180.66 453.06,-177.81"/>
<text text-anchor="middle" x="614.11" y="-184.42" font-family="sans-serif" font-size="16.00">GestionClientesContext</text>
</g>
<!-- GestionOrdenesContext&#45;&gt;GestionClientesContext -->
<g id="edge3" class="edge">
<title>GestionOrdenesContext&#45;&gt;GestionClientesContext</title>
<path fill="none" stroke="black" stroke-width="2" d="M285.35,-300.08C349.86,-278.32 434.44,-249.8 501.66,-227.14"/>
<text text-anchor="middle" x="448.61" y="-257.74" font-family="sans-serif" font-size="12.00">Partnership</text>
</g>
<!-- GestionEnviosContext -->
<g id="node5" class="node">
<title>GestionEnviosContext</title>
<polygon fill="none" stroke="black" stroke-width="2" points="567.25,-3.57 577,-2.67 586.82,-1.9 596.67,-1.25 606.51,-0.72 616.3,-0.33 626.01,-0.07 635.59,0.05 645.02,0.04 654.26,-0.11 663.28,-0.4 672.04,-0.83 680.53,-1.39 688.7,-2.09 696.55,-2.92 704.05,-3.89 711.17,-4.98 717.91,-6.2 724.25,-7.54 730.17,-9 735.67,-10.57 740.73,-12.25 745.36,-14.03 749.56,-15.91 753.31,-17.87 756.62,-19.92 759.5,-22.05 761.95,-24.24 763.97,-26.49 765.58,-28.8 766.77,-31.15 767.57,-33.54 767.98,-35.96 768.01,-38.4 767.68,-40.85 767,-43.3 765.97,-45.76 764.62,-48.2 762.95,-50.62 760.98,-53.02 758.73,-55.38 756.19,-57.7 753.38,-59.98 750.32,-62.2 747.01,-64.36 743.46,-66.45 739.68,-68.47 735.68,-70.41 731.46,-72.27 727.03,-74.05 722.4,-75.73 717.57,-77.32 712.54,-78.82 707.33,-80.21 701.93,-81.5 696.34,-82.68 690.57,-83.75 684.63,-84.72 678.51,-85.58 672.22,-86.33 665.77,-86.96 659.16,-87.49 652.39,-87.9 645.47,-88.21 638.4,-88.4 631.21,-88.48 623.88,-88.46 616.44,-88.33 608.9,-88.09 601.26,-87.75 593.55,-87.3 585.78,-86.76 577.96,-86.12 570.12,-85.38 562.27,-84.55 554.44,-83.62 546.64,-82.61 538.92,-81.5 531.28,-80.32 523.75,-79.05 516.37,-77.7 509.16,-76.28 502.14,-74.78 495.36,-73.21 488.83,-71.58 482.58,-69.88 476.66,-68.11 471.07,-66.29 465.86,-64.42 461.05,-62.49 456.67,-60.52 452.73,-58.5 449.27,-56.45 446.31,-54.36 443.87,-52.24 441.96,-50.09 440.6,-47.92 439.8,-45.73 439.59,-43.53 439.95,-41.33 440.91,-39.12 442.45,-36.92 444.59,-34.72 447.32,-32.54 450.63,-30.38 454.52,-28.25 458.96,-26.15 463.95,-24.09 469.48,-22.07 475.51,-20.11 482.02,-18.2 489,-16.35 496.41,-14.58 504.22,-12.88 512.4,-11.26 520.91,-9.73 529.73,-8.29 538.81,-6.95 548.11,-5.71 557.61,-4.59 567.25,-3.57"/>
<text text-anchor="middle" x="614.11" y="-41.75" font-family="sans-serif" font-size="16.00">GestionEnviosContext</text>
</g>
<!-- GestionClientesContext&#45;&gt;GestionEnviosContext -->
<g id="edge4" class="edge">
<title>GestionClientesContext&#45;&gt;GestionEnviosContext</title>
<path fill="none" stroke="black" stroke-width="2" d="M614.11,-140.77C614.11,-123.96 614.11,-105.09 614.11,-88.68"/>
<text text-anchor="middle" x="648.61" y="-112.5" font-family="sans-serif" font-size="12.00">Partnership</text>
</g>
<!-- GestionsAutorizacionAutenticacionContext -->
<g id="node6" class="node">
<title>GestionsAutorizacionAutenticacionContext</title>
<polygon fill="none" stroke="black" stroke-width="2" points="552.82,-372.54 537.04,-371.15 521.74,-369.66 506.97,-368.08 492.8,-366.42 479.29,-364.68 466.5,-362.86 454.46,-360.98 443.24,-359.03 432.88,-357.03 423.42,-354.98 414.89,-352.89 407.32,-350.77 400.74,-348.61 395.17,-346.43 390.62,-344.23 387.11,-342.02 384.64,-339.8 383.2,-337.58 382.8,-335.37 383.43,-333.16 385.06,-330.97 387.68,-328.8 391.26,-326.66 395.78,-324.55 401.21,-322.46 407.5,-320.42 414.62,-318.42 422.52,-316.46 431.17,-314.55 440.52,-312.7 450.51,-310.9 461.09,-309.16 472.23,-307.49 483.86,-305.88 495.93,-304.34 508.4,-302.87 521.2,-301.48 534.3,-300.17 547.63,-298.93 561.16,-297.78 574.84,-296.71 588.61,-295.73 602.45,-294.84 616.3,-294.05 630.14,-293.35 643.92,-292.74 657.61,-292.23 671.19,-291.82 684.61,-291.52 697.87,-291.32 710.93,-291.22 723.78,-291.24 736.4,-291.35 748.76,-291.58 760.87,-291.92 772.7,-292.37 784.24,-292.93 795.49,-293.6 806.43,-294.38 817.07,-295.27 827.38,-296.27 837.38,-297.37 847.05,-298.59 856.38,-299.91 865.38,-301.33 874.03,-302.85 882.33,-304.47 890.26,-306.18 897.84,-307.98 905.03,-309.86 911.84,-311.83 918.24,-313.88 924.24,-315.99 929.81,-318.18 934.94,-320.42 939.61,-322.71 943.81,-325.05 947.51,-327.43 950.7,-329.84 953.36,-332.28 955.46,-334.74 956.99,-337.2 957.92,-339.67 958.24,-342.13 957.91,-344.57 956.93,-346.99 955.27,-349.39 952.92,-351.74 949.85,-354.04 946.06,-356.29 941.52,-358.48 936.24,-360.59 930.21,-362.63 923.41,-364.59 915.86,-366.45 907.54,-368.21 898.47,-369.87 888.65,-371.42 878.11,-372.85 866.85,-374.17 854.9,-375.36 842.29,-376.42 829.03,-377.35 815.18,-378.15 800.76,-378.81 785.82,-379.33 770.4,-379.71 754.56,-379.96 738.34,-380.06 721.8,-380.03 705,-379.86 688.01,-379.55 670.87,-379.11 653.67,-378.54 636.47,-377.84 619.33,-377.01 602.33,-376.06 585.53,-375 569.01,-373.82 552.82,-372.54"/>
<text text-anchor="middle" x="689.11" y="-330.4" font-family="sans-serif" font-size="16.00">GestionsAutorizacionAutenticacionContext</text>
</g>
<!-- GestionsAutorizacionAutenticacionContext&#45;&gt;GestionClientesContext -->
<g id="edge5" class="edge">
<title>GestionsAutorizacionAutenticacionContext&#45;&gt;GestionClientesContext</title>
<path fill="none" stroke="black" stroke-width="2" d="M667.42,-291.55C657.6,-272.7 646.01,-250.45 636.15,-231.52"/>
<text text-anchor="middle" x="729.61" y="-257.74" font-family="sans-serif" font-size="12.00"> &#160;&#160;&#160;&#160;&#160;&#160;&#160;&#160;&#160;&#160;&#160;&#160;&#160;&#160;&#160;&#160;&#160;&#160;&#160;&#160;&#160;&#160;&#160;&#160;&#160;&#160;&#160;&#160;&#160;&#160;&#160;&#160;&#160;&#160;&#160;&#160;&#160;&#160;&#160;</text>
<polygon fill="white" stroke="transparent" points="617.15,-221.52 617.15,-240.52 633.15,-240.52 633.15,-221.52 617.15,-221.52"/>
<polyline fill="none" stroke="black" points="633.15,-221.52 633.15,-240.52 "/>
<text text-anchor="start" x="620.15" y="-227.92" font-family="sans-serif" font-size="12.00">D</text>
<polygon fill="white" stroke="transparent" points="633.15,-221.52 633.15,-240.52 655.15,-240.52 655.15,-221.52 633.15,-221.52"/>
<polygon fill="none" stroke="black" points="633.15,-221.52 633.15,-240.52 655.15,-240.52 655.15,-221.52 633.15,-221.52"/>
<text text-anchor="start" x="636.15" y="-227.92" font-family="sans-serif" font-size="12.00">CF</text>
<polygon fill="white" stroke="transparent" points="649.42,-281.55 649.42,-300.55 665.42,-300.55 665.42,-281.55 649.42,-281.55"/>
<polyline fill="none" stroke="black" points="665.42,-281.55 665.42,-300.55 "/>
<text text-anchor="start" x="652.42" y="-287.95" font-family="sans-serif" font-size="12.00">U</text>
<polygon fill="white" stroke="transparent" points="665.42,-281.55 665.42,-300.55 686.42,-300.55 686.42,-281.55 665.42,-281.55"/>
<polygon fill="none" stroke="black" points="665.42,-281.55 665.42,-300.55 686.42,-300.55 686.42,-281.55 665.42,-281.55"/>
<text text-anchor="start" x="668.42" y="-287.95" font-family="sans-serif" font-size="12.00">PL</text>
</g>
</g>
</svg>
